<svg width="25" height="24" viewBox="0 0 25 24" fill="none" xmlns="http://www.w3.org/2000/svg">
<path fill-rule="evenodd" clip-rule="evenodd" d="M4.79614 8.02539C5.21035 8.02539 5.54614 8.36118 5.54614 8.77539V17.4504C5.54614 18.7282 6.58225 19.7643 7.86003 19.7643H16.7394C18.0172 19.7643 19.0533 18.7282 19.0533 17.4504V8.77539C19.0533 8.36118 19.3891 8.02539 19.8033 8.02539C20.2175 8.02539 20.5533 8.36118 20.5533 8.77539V17.4504C20.5533 19.5566 18.8456 21.2643 16.7394 21.2643H7.86003C5.75382 21.2643 4.04614 19.5566 4.04614 17.4504V8.77539C4.04614 8.36118 4.38193 8.02539 4.79614 8.02539Z" fill="#525866"/>
<path fill-rule="evenodd" clip-rule="evenodd" d="M10.3609 3.41024C11.4975 2.51169 13.1026 2.51169 14.2392 3.41024L21.7655 9.36806C22.0903 9.62515 22.1452 10.0968 21.8881 10.4216C21.631 10.7464 21.1593 10.8013 20.8345 10.5442L13.309 4.58696C13.3088 4.58685 13.3091 4.58706 13.309 4.58696C12.7177 4.11979 11.8825 4.11955 11.2912 4.58685C11.2912 4.58688 11.2913 4.58681 11.2912 4.58685L3.76558 10.5442C3.44081 10.8013 2.96912 10.7464 2.71203 10.4216C2.45494 10.0968 2.5098 9.62515 2.83458 9.36806L10.3609 3.41024Z" fill="#525866"/>
<path fill-rule="evenodd" clip-rule="evenodd" d="M17.968 4.19336C18.3822 4.19336 18.718 4.52915 18.718 4.94336V7.29688C18.718 7.71109 18.3822 8.04688 17.968 8.04688C17.5538 8.04688 17.218 7.71109 17.218 7.29688V4.94336C17.218 4.52915 17.5538 4.19336 17.968 4.19336Z" fill="#525866"/>
<path fill-rule="evenodd" clip-rule="evenodd" d="M12.2742 13.6875H12.3292C12.706 13.6875 13.0311 13.6875 13.2992 13.7084C13.582 13.7304 13.8638 13.779 14.1371 13.9108C14.5955 14.1319 14.9654 14.5018 15.1865 14.9602C15.3183 15.2335 15.3669 15.5153 15.3889 15.7981C15.4098 16.0662 15.4098 16.3913 15.4098 16.7681V20.5142C15.4098 20.9284 15.074 21.2642 14.6598 21.2642C14.2456 21.2642 13.9098 20.9284 13.9098 20.5142V16.7956C13.9098 16.3835 13.9093 16.1175 13.8935 15.9146C13.8783 15.72 13.8525 15.6472 13.8354 15.6117C13.7617 15.4589 13.6384 15.3356 13.4856 15.2619C13.4501 15.2448 13.3773 15.219 13.1827 15.2038C12.9798 15.188 12.7138 15.1875 12.3017 15.1875C11.8896 15.1875 11.6235 15.188 11.4207 15.2038C11.226 15.219 11.1533 15.2448 11.1178 15.2619C10.965 15.3356 10.8417 15.4589 10.768 15.6117C10.7509 15.6472 10.7251 15.72 10.7099 15.9146C10.6941 16.1175 10.6936 16.3835 10.6936 16.7956V20.5142C10.6936 20.9284 10.3578 21.2642 9.9436 21.2642C9.52938 21.2642 9.1936 20.9284 9.1936 20.5142V16.7681C9.19358 16.3913 9.19357 16.0662 9.21447 15.7981C9.23652 15.5153 9.28514 15.2335 9.41692 14.9602C9.63797 14.5018 10.0079 14.1319 10.4663 13.9108C10.7396 13.779 11.0213 13.7304 11.3041 13.7084C11.5723 13.6875 11.8974 13.6875 12.2742 13.6875Z" fill="#525866"/>
</svg>
