<svg width="32" height="32" viewBox="0 0 32 32" fill="none" xmlns="http://www.w3.org/2000/svg">
<path d="M16 6.6665C16.5521 6.6665 17 7.11426 17 7.6665V14.6665H24C24.5521 14.6665 25 15.1142 25 15.6665C25 15.9686 24.8659 16.2394 24.6543 16.4226C24.4792 16.5745 24.25 16.6665 24 16.6665H17V23.6665C17 24.2188 16.5521 24.6665 16 24.6665C15.4479 24.6665 15 24.2188 15 23.6665V16.6665H8C7.44792 16.6665 7 16.2188 7 15.6665C7 15.1142 7.44792 14.6665 8 14.6665H15V7.6665C15 7.11426 15.4479 6.6665 16 6.6665Z" fill="white"/>
</svg>
