<svg width="25" height="24" viewBox="0 0 25 24" fill="none" xmlns="http://www.w3.org/2000/svg">
<path fill-rule="evenodd" clip-rule="evenodd" d="M12.1486 3.50024C8.1233 3.50024 4.86011 6.76343 4.86011 10.7888C4.86011 14.8141 8.1233 18.0773 12.1486 18.0773C16.1739 18.0773 19.4371 14.8141 19.4371 10.7888C19.4371 6.76343 16.1739 3.50024 12.1486 3.50024ZM3.36011 10.7888C3.36011 5.93501 7.29487 2.00024 12.1486 2.00024C17.0024 2.00024 20.9371 5.93501 20.9371 10.7888C20.9371 15.6426 17.0024 19.5773 12.1486 19.5773C7.29487 19.5773 3.36011 15.6426 3.36011 10.7888Z" fill="#525866"/>
<path fill-rule="evenodd" clip-rule="evenodd" d="M17.636 15.6477L23.2515 21.2486L22.1922 22.3106L16.5767 16.7097L17.636 15.6477Z" fill="#525866"/>
</svg>
