<svg width="25" height="24" viewBox="0 0 25 24" fill="none" xmlns="http://www.w3.org/2000/svg">
<path fill-rule="evenodd" clip-rule="evenodd" d="M9.65889 4.52859C9.65889 3.13292 10.7903 2 12.1875 2H13.3609C13.3803 2 13.3983 2.00046 13.4072 2.00068L13.4088 2.00072C13.4175 2.00094 13.4197 2.00097 13.4197 2.00097C13.4278 2.00097 13.4355 2.0011 13.4436 2.00137C14.8397 2.04671 15.936 3.20962 15.9023 4.60334C15.9059 4.76705 15.9514 4.92741 16.0353 5.07025L16.0381 5.07483L16.0398 5.07761C16.0408 5.07933 16.0418 5.08105 16.0428 5.08277C16.3318 5.57139 16.9629 5.7328 17.4509 5.44326L17.4603 5.4377C18.6744 4.74097 20.2235 5.15609 20.925 6.36845L20.9255 6.36946L21.5084 7.38038C21.5227 7.40521 21.5355 7.43077 21.5468 7.45692C22.1854 8.65772 21.7626 10.1553 20.58 10.8434L20.5749 10.8464C20.4189 10.9355 20.2889 11.0656 20.1998 11.2221L20.1911 11.2368L20.1898 11.2389C19.9107 11.7285 20.0781 12.351 20.5636 12.6354C20.5645 12.6359 20.5653 12.6364 20.5663 12.6368C20.5706 12.6392 20.5754 12.6418 20.5805 12.6447C20.5906 12.6504 20.6037 12.6581 20.6187 12.6677C21.8085 13.3775 22.2062 14.9144 21.5063 16.1134L21.502 16.1208L20.8878 17.1457C20.1857 18.3525 18.6396 18.768 17.4275 18.0717C17.2747 17.985 17.1049 17.937 16.9314 17.9311H16.921C16.3543 17.9363 15.8982 18.3996 15.9021 18.9662L15.9022 18.9766C15.8925 20.3736 14.7575 21.5 13.3609 21.5H12.1914C10.7894 21.5 9.65253 20.3651 9.65014 18.9642C9.64806 18.7998 9.60374 18.638 9.52132 18.4948C9.51517 18.4852 9.50923 18.4755 9.50352 18.4657C9.21951 17.9768 8.59238 17.8111 8.10403 18.0957C8.10385 18.0958 8.1042 18.0956 8.10403 18.0957L8.10055 18.0978C8.09519 18.101 8.08821 18.1051 8.07999 18.1096C8.0773 18.1111 8.07443 18.1127 8.07137 18.1143C6.84518 18.7863 5.30781 18.3419 4.62888 17.121L4.051 16.125C4.04932 16.1223 4.04759 16.1195 4.04582 16.1166C4.04194 16.1102 4.0377 16.103 4.03322 16.0951C3.34182 14.8844 3.76068 13.3421 4.97045 12.648C5.29265 12.4616 5.49067 12.1178 5.49067 11.7471C5.49067 11.3748 5.29212 11.0309 4.96964 10.8448L4.96864 10.8442C3.75818 10.143 3.34085 8.59297 4.03976 7.37885L4.04884 7.36351L4.67061 6.34043C5.37414 5.13393 6.91926 4.72206 8.13084 5.41734L8.13953 5.42233C8.28578 5.50887 8.45053 5.55514 8.61853 5.5572C9.18517 5.55752 9.64859 5.10261 9.65889 4.53536V4.52859ZM16.0448 5.08635C16.0454 5.08739 16.0459 5.08823 16.0455 5.08759L16.0448 5.08635ZM12.1875 3.5C11.6192 3.5 11.1589 3.96081 11.1589 4.52859V4.55166C11.1395 5.94296 10.0037 7.06133 8.61152 7.05719L8.6065 7.05717C8.17416 7.05299 7.75216 6.93489 7.38084 6.71639C6.88304 6.43315 6.25098 6.60418 5.96455 7.09922L5.95629 7.11314L5.33592 8.13391C5.05555 8.62928 5.22659 9.26012 5.72049 9.5462L5.34457 10.1952L5.71949 9.54563C6.5062 9.9997 6.99067 10.8389 6.99067 11.7471C6.99067 12.6545 6.50601 13.4936 5.71949 13.9476L5.71747 13.9487C5.22949 14.2284 5.05744 14.8473 5.32837 15.3381C5.32884 15.3388 5.32932 15.3396 5.32979 15.3404C5.33321 15.346 5.3369 15.3522 5.34078 15.359L5.93005 16.3747L5.93802 16.3888C6.2141 16.8892 6.84101 17.0733 7.34372 16.8026C7.34762 16.8003 7.35218 16.7977 7.35729 16.7948C8.55385 16.1036 10.0841 16.5044 10.7885 17.6918C10.7892 17.6929 10.7899 17.6939 10.7905 17.6949C10.7969 17.705 10.8025 17.7144 10.8037 17.7164L10.8062 17.7206C11.0269 18.0936 11.1459 18.5185 11.1501 18.9525V18.9597C11.1501 19.5338 11.6158 20 12.1914 20H13.3609C13.9321 20 14.396 19.5407 14.4021 18.9703C14.3958 17.5771 15.5192 16.4408 16.9129 16.4312L16.9181 16.4311H16.9424L16.9617 16.4314C17.3882 16.4424 17.8025 16.5593 18.1704 16.7686L18.1737 16.7705C18.67 17.0561 19.3051 16.886 19.5926 16.3891L19.5983 16.3791L20.2128 15.354C20.4966 14.8637 20.3308 14.2363 19.8413 13.9506C19.8378 13.9486 19.8343 13.9465 19.8309 13.9444C18.6215 13.2546 18.1972 11.7173 18.8814 10.5054C18.8908 10.4881 18.8987 10.4752 18.9025 10.4689C19.1239 10.0849 19.444 9.7657 19.8276 9.54579C20.3203 9.25766 20.4889 8.62769 20.2071 8.13325C20.1958 8.11355 20.1855 8.0934 20.1762 8.07286L19.6266 7.11966C19.6266 7.11955 19.6267 7.11976 19.6266 7.11966C19.3402 6.62494 18.7083 6.4537 18.2106 6.73666C17.0114 7.444 15.4647 7.04765 14.7537 5.84969L14.7506 5.84463L14.749 5.84188C14.748 5.8402 14.747 5.83851 14.746 5.83682C14.5255 5.46423 14.4064 5.04028 14.4021 4.60591C14.402 4.59562 14.4022 4.58532 14.4025 4.57504C14.4205 4.00281 13.9739 3.52385 13.4031 3.50088C13.3903 3.50073 13.3793 3.50045 13.3729 3.50029L13.3713 3.50025C13.363 3.50004 13.3606 3.50001 13.3604 3.5H12.1875ZM7.32306 16.8151C7.32227 16.8156 7.32358 16.8148 7.32519 16.8138L7.32306 16.8151ZM12.7782 10.0305C11.8292 10.0305 11.0607 10.799 11.0607 11.748C11.0607 12.6969 11.8292 13.4654 12.7782 13.4654C13.7271 13.4654 14.4956 12.6969 14.4956 11.748C14.4956 10.799 13.7271 10.0305 12.7782 10.0305ZM9.56071 11.748C9.56071 9.9706 11.0008 8.53051 12.7782 8.53051C14.5555 8.53051 15.9956 9.9706 15.9956 11.748C15.9956 13.5253 14.5555 14.9654 12.7782 14.9654C11.0008 14.9654 9.56071 13.5253 9.56071 11.748Z" fill="#525866"/>
</svg>
